%TF.GenerationSoftware,KiCad,Pcbnew,(6.0.8)*%
%TF.CreationDate,2024-08-07T09:19:53+08:00*%
%TF.ProjectId,Burning_board,4275726e-696e-4675-9f62-6f6172642e6b,rev?*%
%TF.SameCoordinates,Original*%
%TF.FileFunction,Copper,L2,Bot*%
%TF.FilePolarity,Positive*%
%FSLAX46Y46*%
G04 Gerber Fmt 4.6, Leading zero omitted, Abs format (unit mm)*
G04 Created by KiCad (PCBNEW (6.0.8)) date 2024-08-07 09:19:53*
%MOMM*%
%LPD*%
G01*
G04 APERTURE LIST*
G04 Aperture macros list*
%AMRoundRect*
0 Rectangle with rounded corners*
0 $1 Rounding radius*
0 $2 $3 $4 $5 $6 $7 $8 $9 X,Y pos of 4 corners*
0 Add a 4 corners polygon primitive as box body*
4,1,4,$2,$3,$4,$5,$6,$7,$8,$9,$2,$3,0*
0 Add four circle primitives for the rounded corners*
1,1,$1+$1,$2,$3*
1,1,$1+$1,$4,$5*
1,1,$1+$1,$6,$7*
1,1,$1+$1,$8,$9*
0 Add four rect primitives between the rounded corners*
20,1,$1+$1,$2,$3,$4,$5,0*
20,1,$1+$1,$4,$5,$6,$7,0*
20,1,$1+$1,$6,$7,$8,$9,0*
20,1,$1+$1,$8,$9,$2,$3,0*%
G04 Aperture macros list end*
%TA.AperFunction,SMDPad,CuDef*%
%ADD10RoundRect,0.140000X-0.170000X0.140000X-0.170000X-0.140000X0.170000X-0.140000X0.170000X0.140000X0*%
%TD*%
%TA.AperFunction,SMDPad,CuDef*%
%ADD11RoundRect,0.300000X-0.100000X0.100000X-0.100000X-0.100000X0.100000X-0.100000X0.100000X0.100000X0*%
%TD*%
%TA.AperFunction,SMDPad,CuDef*%
%ADD12R,0.711200X0.228600*%
%TD*%
%TA.AperFunction,ViaPad*%
%ADD13C,0.450000*%
%TD*%
%TA.AperFunction,Conductor*%
%ADD14C,0.100000*%
%TD*%
%TA.AperFunction,Conductor*%
%ADD15C,0.500000*%
%TD*%
%TA.AperFunction,Conductor*%
%ADD16C,0.250000*%
%TD*%
G04 APERTURE END LIST*
D10*
%TO.P,C1,1*%
%TO.N,+3V3*%
X5625000Y2020000D03*
%TO.P,C1,2*%
%TO.N,GND*%
X5625000Y1060000D03*
%TD*%
D11*
%TO.P,U3,1,1*%
%TO.N,/SDA*%
X7895000Y1710000D03*
%TD*%
D12*
%TO.P,J3,1,1*%
%TO.N,+3V3*%
X4294999Y2599775D03*
%TO.P,J3,2,2*%
%TO.N,/BATT_MON*%
X1215001Y2599775D03*
%TO.P,J3,3,3*%
%TO.N,+3V3*%
X4294999Y2999825D03*
%TO.P,J3,4,4*%
%TO.N,/SD_CLK*%
X1215001Y2999825D03*
%TO.P,J3,5,5*%
%TO.N,/TX*%
X4294999Y3399875D03*
%TO.P,J3,6,6*%
%TO.N,/SD_DATA2*%
X1215001Y3399875D03*
%TO.P,J3,7,7*%
%TO.N,/RX*%
X4294999Y3799925D03*
%TO.P,J3,8,8*%
%TO.N,+3V3*%
X1215001Y3799925D03*
%TO.P,J3,9,9*%
%TO.N,/SDA*%
X4294999Y4199975D03*
%TO.P,J3,10,10*%
%TO.N,/SD_DATA3*%
X1215001Y4199975D03*
%TO.P,J3,11,11*%
%TO.N,/SCL*%
X4294999Y4600025D03*
%TO.P,J3,12,12*%
%TO.N,/SD_CMD*%
X1215001Y4600025D03*
%TO.P,J3,13,13*%
%TO.N,GND*%
X4294999Y5000075D03*
%TO.P,J3,14,14*%
%TO.N,/SD_DATA0*%
X1215001Y5000075D03*
%TO.P,J3,15,15*%
%TO.N,/PCLK*%
X4294999Y5400125D03*
%TO.P,J3,16,16*%
%TO.N,/SD_DATA1*%
X1215001Y5400125D03*
%TO.P,J3,17,17*%
%TO.N,GND*%
X4294999Y5800175D03*
%TO.P,J3,18,18*%
%TO.N,/IO21*%
X1215001Y5800175D03*
%TO.P,J3,19,19*%
%TO.N,GND*%
X4294999Y6200225D03*
%TO.P,J3,20,20*%
%TO.N,/IO5*%
X1215001Y6200225D03*
%TD*%
D11*
%TO.P,U4,1,1*%
%TO.N,/SCL*%
X7915000Y3570000D03*
%TD*%
%TO.P,U1,1,1*%
%TO.N,/IO21*%
X7895000Y5330000D03*
%TD*%
%TO.P,U2,1,1*%
%TO.N,/IO5*%
X7885000Y7110000D03*
%TD*%
D13*
%TO.N,+3V3*%
X6135000Y1870000D03*
X6705000Y1950000D03*
X670333Y3821943D03*
X4645000Y2961073D03*
X3565000Y2660000D03*
%TO.N,GND*%
X5305000Y770000D03*
X3692885Y5857590D03*
X3596272Y5012480D03*
X6085000Y710000D03*
X4765000Y6230000D03*
%TO.N,/BATT_MON*%
X1955000Y2610000D03*
%TO.N,/SD_CLK*%
X705622Y2999826D03*
%TO.N,/SD_DATA2*%
X1905000Y3430000D03*
%TO.N,/TX*%
X3624836Y3430001D03*
%TO.N,/RX*%
X4844293Y3791083D03*
%TO.N,/SD_DATA3*%
X1920556Y4252341D03*
%TO.N,/SDA*%
X3560106Y4262582D03*
%TO.N,/SD_CMD*%
X632267Y4584423D03*
%TO.N,/SCL*%
X4804378Y4600026D03*
%TO.N,/SD_DATA0*%
X1901518Y5039531D03*
%TO.N,/SD_DATA1*%
X700918Y5402707D03*
%TO.N,/PCLK*%
X4804378Y5400124D03*
%TO.N,/IO21*%
X1975000Y5840000D03*
%TO.N,/IO5*%
X765294Y6225031D03*
%TD*%
D14*
%TO.N,+3V3*%
X4215000Y2880000D02*
X4215000Y2919826D01*
X1225076Y3810000D02*
X1215001Y3799925D01*
X4215000Y2919826D02*
X4294999Y2999825D01*
X3565000Y2660000D02*
X3115000Y2660000D01*
X4294999Y2800001D02*
X4215000Y2880000D01*
D15*
X5075000Y2020000D02*
X4440000Y2655000D01*
D14*
X3115000Y2660000D02*
X2345000Y3430000D01*
D15*
X5695000Y1950000D02*
X5625000Y2020000D01*
D14*
X4294999Y2999825D02*
X4606248Y2999825D01*
X1215001Y3799925D02*
X692351Y3799925D01*
X4606248Y2999825D02*
X4645000Y2961073D01*
X692351Y3799925D02*
X670333Y3821943D01*
D15*
X5775000Y1870000D02*
X5625000Y2020000D01*
D14*
X2345000Y3430000D02*
X2345000Y3810000D01*
X4294999Y2599775D02*
X4294999Y2800001D01*
X3565000Y2660000D02*
X4234774Y2660000D01*
D15*
X6135000Y1870000D02*
X5775000Y1870000D01*
D14*
X2345000Y3810000D02*
X1225076Y3810000D01*
D15*
X6705000Y1950000D02*
X5695000Y1950000D01*
D14*
X4234774Y2660000D02*
X4294999Y2599775D01*
D15*
X5625000Y2020000D02*
X5075000Y2020000D01*
D16*
%TO.N,GND*%
X5595000Y1060000D02*
X5305000Y770000D01*
D14*
X3596272Y5012480D02*
X4282594Y5012480D01*
X4735225Y6200225D02*
X4765000Y6230000D01*
D16*
X5735000Y1060000D02*
X6085000Y710000D01*
X5625000Y1060000D02*
X5735000Y1060000D01*
D14*
X4237584Y5857590D02*
X4294999Y5800175D01*
X4282594Y5012480D02*
X4294999Y5000075D01*
D16*
X5625000Y1060000D02*
X5595000Y1060000D01*
D14*
X4294999Y6200225D02*
X4735225Y6200225D01*
X3692885Y5857590D02*
X4237584Y5857590D01*
%TO.N,/BATT_MON*%
X1225226Y2610000D02*
X1215001Y2599775D01*
X1955000Y2610000D02*
X1225226Y2610000D01*
%TO.N,/SD_CLK*%
X1215001Y2999825D02*
X705622Y2999826D01*
%TO.N,/SD_DATA2*%
X1245126Y3430000D02*
X1215001Y3399875D01*
X1905000Y3430000D02*
X1245126Y3430000D01*
%TO.N,/TX*%
X4264873Y3430001D02*
X4294999Y3399875D01*
X3624836Y3430001D02*
X4264873Y3430001D01*
%TO.N,/RX*%
X4294999Y3799925D02*
X4835451Y3799925D01*
X4835451Y3799925D02*
X4844293Y3791083D01*
%TO.N,/SD_DATA3*%
X1920556Y4252341D02*
X1267367Y4252341D01*
X1267367Y4252341D02*
X1215001Y4199975D01*
%TO.N,/SDA*%
X4965025Y4199975D02*
X5725000Y3440000D01*
X7895000Y1910000D02*
X7895000Y1710000D01*
X6115000Y2500000D02*
X7305000Y2500000D01*
X4294999Y4199975D02*
X4965025Y4199975D01*
X7305000Y2500000D02*
X7895000Y1910000D01*
X5725000Y2890000D02*
X6115000Y2500000D01*
X5725000Y3440000D02*
X5725000Y2890000D01*
X3560106Y4262582D02*
X4232392Y4262582D01*
X4232392Y4262582D02*
X4294999Y4199975D01*
%TO.N,/SD_CMD*%
X647869Y4600025D02*
X632267Y4584423D01*
X1215001Y4600025D02*
X647869Y4600025D01*
%TO.N,/SCL*%
X7905000Y3560000D02*
X7915000Y3570000D01*
X4804378Y4600026D02*
X5454974Y4600026D01*
X4294999Y4600025D02*
X4804378Y4600026D01*
X6495000Y3560000D02*
X7905000Y3560000D01*
X5454974Y4600026D02*
X6495000Y3560000D01*
%TO.N,/SD_DATA0*%
X1254457Y5039531D02*
X1215001Y5000075D01*
X1901518Y5039531D02*
X1254457Y5039531D01*
%TO.N,/SD_DATA1*%
X703500Y5400125D02*
X700918Y5402707D01*
X1215001Y5400125D02*
X703500Y5400125D01*
%TO.N,/PCLK*%
X4294999Y5400125D02*
X4804378Y5400124D01*
%TO.N,/IO21*%
X1975000Y5840000D02*
X2405000Y5840000D01*
X7205000Y5330000D02*
X7895000Y5330000D01*
X2405000Y5840000D02*
X3335000Y6770000D01*
X1975000Y5840000D02*
X1254826Y5840000D01*
X1254826Y5840000D02*
X1215001Y5800175D01*
X3335000Y6770000D02*
X5765000Y6770000D01*
X5765000Y6770000D02*
X7205000Y5330000D01*
%TO.N,/IO5*%
X790100Y6200225D02*
X765294Y6225031D01*
X1215001Y6330001D02*
X2175000Y7290000D01*
X7705000Y7290000D02*
X7885000Y7110000D01*
X1215001Y6200225D02*
X1215001Y6330001D01*
X1215001Y6200225D02*
X790100Y6200225D01*
X2175000Y7290000D02*
X7705000Y7290000D01*
%TD*%
%TA.AperFunction,Conductor*%
%TO.N,GND*%
G36*
X9302471Y8722471D02*
G01*
X9309500Y8705500D01*
X9309500Y124500D01*
X9302471Y107529D01*
X9285500Y100500D01*
X124500Y100500D01*
X107529Y107529D01*
X100500Y124500D01*
X100500Y4584423D01*
X301746Y4584423D01*
X302111Y4582353D01*
X321314Y4473445D01*
X321315Y4473442D01*
X321679Y4471378D01*
X379073Y4371968D01*
X467006Y4298183D01*
X574873Y4258923D01*
X689661Y4258923D01*
X702241Y4263502D01*
X726693Y4272401D01*
X745044Y4271599D01*
X757454Y4258056D01*
X758901Y4249848D01*
X758902Y4170178D01*
X751873Y4153208D01*
X734902Y4146178D01*
X730735Y4146543D01*
X729697Y4146726D01*
X727727Y4147443D01*
X612939Y4147443D01*
X505073Y4108183D01*
X417139Y4034398D01*
X359745Y3934988D01*
X359381Y3932924D01*
X359380Y3932921D01*
X340214Y3824222D01*
X339812Y3821943D01*
X340177Y3819873D01*
X359380Y3710965D01*
X359381Y3710962D01*
X359745Y3708898D01*
X417139Y3609488D01*
X505072Y3535703D01*
X612939Y3496443D01*
X727727Y3496443D01*
X729699Y3497161D01*
X730733Y3497343D01*
X748667Y3493368D01*
X758536Y3477876D01*
X758901Y3473708D01*
X758902Y3349326D01*
X751873Y3332356D01*
X734902Y3325326D01*
X648228Y3325326D01*
X540362Y3286066D01*
X452428Y3212281D01*
X395034Y3112871D01*
X394670Y3110807D01*
X394669Y3110804D01*
X387386Y3069500D01*
X375101Y2999826D01*
X375466Y2997756D01*
X394669Y2888848D01*
X394670Y2888845D01*
X395034Y2886781D01*
X452428Y2787371D01*
X540361Y2713586D01*
X648228Y2674326D01*
X734901Y2674326D01*
X751872Y2667297D01*
X758901Y2650326D01*
X758902Y2475577D01*
X764732Y2446262D01*
X786944Y2413018D01*
X820188Y2390806D01*
X822503Y2390346D01*
X822504Y2390345D01*
X841604Y2386546D01*
X849502Y2384975D01*
X850686Y2384975D01*
X1216551Y2384976D01*
X1580499Y2384976D01*
X1581650Y2385205D01*
X1581651Y2385205D01*
X1590711Y2387007D01*
X1609814Y2390806D01*
X1643058Y2413018D01*
X1648339Y2420921D01*
X1663611Y2431127D01*
X1681627Y2427544D01*
X1689078Y2419588D01*
X1700753Y2399366D01*
X1700758Y2399360D01*
X1701806Y2397545D01*
X1789739Y2323760D01*
X1897606Y2284500D01*
X2012394Y2284500D01*
X2120261Y2323760D01*
X2208194Y2397545D01*
X2252580Y2474425D01*
X2264539Y2495138D01*
X2265588Y2496955D01*
X2265952Y2499019D01*
X2265953Y2499022D01*
X2285156Y2607930D01*
X2285521Y2610000D01*
X2280980Y2635753D01*
X2265953Y2720978D01*
X2265952Y2720981D01*
X2265588Y2723045D01*
X2249775Y2750435D01*
X2209243Y2820638D01*
X2208194Y2822455D01*
X2120261Y2896240D01*
X2012394Y2935500D01*
X1897606Y2935500D01*
X1789740Y2896240D01*
X1708059Y2827702D01*
X1704534Y2824744D01*
X1687015Y2819220D01*
X1670722Y2827702D01*
X1665198Y2845221D01*
X1665568Y2847811D01*
X1665939Y2849673D01*
X1671101Y2875626D01*
X1671101Y2999826D01*
X1671100Y3122849D01*
X1671100Y3124023D01*
X1665951Y3149913D01*
X1669535Y3167928D01*
X1684809Y3178133D01*
X1702824Y3174549D01*
X1704917Y3172979D01*
X1739739Y3143760D01*
X1847606Y3104500D01*
X1962394Y3104500D01*
X2070261Y3143760D01*
X2158194Y3217545D01*
X2174602Y3245965D01*
X2210790Y3308644D01*
X2225363Y3319826D01*
X2243575Y3317429D01*
X2248543Y3313617D01*
X2267095Y3295065D01*
X2267096Y3295065D01*
X3037096Y2525065D01*
X3040145Y2524248D01*
X3040147Y2524247D01*
X3053856Y2520574D01*
X3059644Y2518177D01*
X3074673Y2509500D01*
X3262180Y2509500D01*
X3279151Y2502471D01*
X3282965Y2497500D01*
X3311806Y2447545D01*
X3399739Y2373760D01*
X3507606Y2334500D01*
X3622394Y2334500D01*
X3730261Y2373760D01*
X3779392Y2414986D01*
X3814139Y2444142D01*
X3831658Y2449666D01*
X3847951Y2441184D01*
X3849522Y2439090D01*
X3866942Y2413018D01*
X3900186Y2390806D01*
X3902501Y2390346D01*
X3902502Y2390345D01*
X3921602Y2386546D01*
X3929500Y2384975D01*
X4204401Y2384975D01*
X4221372Y2377946D01*
X4798899Y1800419D01*
X4802090Y1796467D01*
X4811100Y1782512D01*
X4811102Y1782510D01*
X4812175Y1780848D01*
X4813730Y1779622D01*
X4813731Y1779621D01*
X4840801Y1758281D01*
X4842914Y1756404D01*
X4847747Y1751571D01*
X4848547Y1750999D01*
X4848551Y1750996D01*
X4864032Y1739934D01*
X4864931Y1739259D01*
X4903811Y1708608D01*
X4905679Y1707952D01*
X4908569Y1706937D01*
X4914568Y1703820D01*
X4918670Y1700889D01*
X4920569Y1700321D01*
X4966125Y1686697D01*
X4967196Y1686348D01*
X5013906Y1669945D01*
X5015418Y1669814D01*
X5015823Y1669779D01*
X5019044Y1669500D01*
X5020117Y1669500D01*
X5026993Y1668494D01*
X5028563Y1668024D01*
X5028566Y1668024D01*
X5030464Y1667456D01*
X5082005Y1669481D01*
X5082946Y1669500D01*
X5329866Y1669500D01*
X5343200Y1665455D01*
X5361161Y1653454D01*
X5431312Y1639500D01*
X5494132Y1639500D01*
X5511564Y1631794D01*
X5512175Y1630848D01*
X5513734Y1629619D01*
X5540801Y1608281D01*
X5542914Y1606404D01*
X5547746Y1601572D01*
X5548552Y1600996D01*
X5548558Y1600991D01*
X5564044Y1589924D01*
X5564937Y1589254D01*
X5603811Y1558608D01*
X5608564Y1556939D01*
X5614566Y1553821D01*
X5618669Y1550889D01*
X5620573Y1550320D01*
X5620572Y1550320D01*
X5666127Y1536696D01*
X5667199Y1536347D01*
X5713906Y1519945D01*
X5715418Y1519814D01*
X5715823Y1519779D01*
X5719044Y1519500D01*
X5720117Y1519500D01*
X5726993Y1518494D01*
X5728563Y1518024D01*
X5728566Y1518024D01*
X5730464Y1517456D01*
X5782005Y1519481D01*
X5782946Y1519500D01*
X6164115Y1519500D01*
X6250103Y1533812D01*
X6298333Y1559836D01*
X6351049Y1588280D01*
X6351051Y1588281D01*
X6352794Y1589222D01*
X6355170Y1591792D01*
X6372793Y1599500D01*
X6734115Y1599500D01*
X6820103Y1613812D01*
X6892717Y1652993D01*
X6921049Y1668280D01*
X6921051Y1668281D01*
X6922794Y1669222D01*
X7002001Y1754907D01*
X7049182Y1861629D01*
X7059251Y1977880D01*
X7031120Y2091125D01*
X6997879Y2142606D01*
X6968900Y2187488D01*
X6968898Y2187490D01*
X6967825Y2189152D01*
X6959588Y2195646D01*
X6877747Y2260164D01*
X6877746Y2260165D01*
X6876189Y2261392D01*
X6874317Y2262049D01*
X6874316Y2262050D01*
X6837625Y2274935D01*
X6766094Y2300055D01*
X6764582Y2300186D01*
X6764177Y2300221D01*
X6760956Y2300500D01*
X6003196Y2300500D01*
X5986225Y2307529D01*
X5983241Y2311166D01*
X5973926Y2325108D01*
X5968391Y2333391D01*
X5888839Y2386546D01*
X5818688Y2400500D01*
X5431312Y2400500D01*
X5361161Y2386546D01*
X5343200Y2374545D01*
X5329866Y2370500D01*
X5230124Y2370500D01*
X5213153Y2377529D01*
X4886194Y2704488D01*
X4879165Y2721459D01*
X4886194Y2738430D01*
X4887738Y2739844D01*
X4896586Y2747268D01*
X4896588Y2747270D01*
X4898194Y2748618D01*
X4938956Y2819220D01*
X4954539Y2846211D01*
X4955588Y2848028D01*
X4955952Y2850092D01*
X4955953Y2850095D01*
X4975156Y2959003D01*
X4975521Y2961073D01*
X4968323Y3001896D01*
X4955953Y3072051D01*
X4955952Y3072054D01*
X4955588Y3074118D01*
X4938047Y3104501D01*
X4899243Y3171711D01*
X4898194Y3173528D01*
X4810261Y3247313D01*
X4766891Y3263098D01*
X4753348Y3275508D01*
X4751099Y3285651D01*
X4751099Y3349326D01*
X4751098Y3444338D01*
X4758127Y3461308D01*
X4775098Y3468338D01*
X4783308Y3466890D01*
X4786899Y3465583D01*
X4901687Y3465583D01*
X5009554Y3504843D01*
X5097487Y3578628D01*
X5154881Y3678038D01*
X5160323Y3708898D01*
X5164749Y3734002D01*
X5174618Y3749495D01*
X5192551Y3753470D01*
X5205355Y3746806D01*
X5567471Y3384690D01*
X5574500Y3367719D01*
X5574500Y2849673D01*
X5583177Y2834644D01*
X5585574Y2828856D01*
X5590065Y2812096D01*
X5647095Y2755065D01*
X6034861Y2367299D01*
X6034863Y2367298D01*
X6037096Y2365065D01*
X6040145Y2364248D01*
X6040147Y2364247D01*
X6053856Y2360574D01*
X6059644Y2358177D01*
X6074673Y2349500D01*
X7232719Y2349500D01*
X7249690Y2342471D01*
X7488414Y2103747D01*
X7495443Y2086776D01*
X7488414Y2069806D01*
X7466950Y2048342D01*
X7409354Y1935304D01*
X7409059Y1933439D01*
X7397398Y1859814D01*
X7394500Y1841519D01*
X7394501Y1578482D01*
X7394647Y1577562D01*
X7394647Y1577558D01*
X7398688Y1552044D01*
X7409354Y1484696D01*
X7466950Y1371658D01*
X7556658Y1281950D01*
X7558339Y1281094D01*
X7558341Y1281092D01*
X7668012Y1225212D01*
X7669696Y1224354D01*
X7719478Y1216469D01*
X7762557Y1209646D01*
X7762561Y1209646D01*
X7763481Y1209500D01*
X7895000Y1209500D01*
X8026518Y1209501D01*
X8027438Y1209647D01*
X8027442Y1209647D01*
X8071160Y1216571D01*
X8120304Y1224354D01*
X8121988Y1225212D01*
X8231659Y1281092D01*
X8231661Y1281094D01*
X8233342Y1281950D01*
X8323050Y1371658D01*
X8380646Y1484696D01*
X8391909Y1555807D01*
X8395354Y1577557D01*
X8395354Y1577561D01*
X8395500Y1578481D01*
X8395499Y1841518D01*
X8392602Y1859814D01*
X8380941Y1933439D01*
X8380646Y1935304D01*
X8359960Y1975902D01*
X8323908Y2046659D01*
X8323906Y2046661D01*
X8323050Y2048342D01*
X8233342Y2138050D01*
X8231661Y2138906D01*
X8231659Y2138908D01*
X8121988Y2194788D01*
X8120304Y2195646D01*
X8070522Y2203531D01*
X8027443Y2210354D01*
X8027439Y2210354D01*
X8026519Y2210500D01*
X8007623Y2210500D01*
X7817282Y2210499D01*
X7800311Y2217528D01*
X7382904Y2634935D01*
X7379855Y2635752D01*
X7379853Y2635753D01*
X7366144Y2639426D01*
X7360356Y2641823D01*
X7345327Y2650500D01*
X7264776Y2650501D01*
X7264674Y2650501D01*
X7264673Y2650500D01*
X6187281Y2650500D01*
X6170310Y2657529D01*
X5882529Y2945310D01*
X5875500Y2962281D01*
X5875500Y3480327D01*
X5866823Y3495356D01*
X5864426Y3501144D01*
X5860753Y3514851D01*
X5859935Y3517904D01*
X5802905Y3574935D01*
X5045164Y4332676D01*
X5045162Y4332677D01*
X5042929Y4334910D01*
X5042378Y4335058D01*
X5032261Y4348241D01*
X5034658Y4366453D01*
X5040016Y4372839D01*
X5055964Y4386221D01*
X5055966Y4386223D01*
X5057572Y4387571D01*
X5086413Y4437526D01*
X5100986Y4448708D01*
X5107198Y4449526D01*
X5382693Y4449526D01*
X5399664Y4442497D01*
X6417096Y3425065D01*
X6420145Y3424248D01*
X6420147Y3424247D01*
X6433856Y3420574D01*
X6439644Y3418177D01*
X6454673Y3409500D01*
X6535224Y3409499D01*
X6535326Y3409499D01*
X6535327Y3409500D01*
X7398592Y3409500D01*
X7415563Y3402471D01*
X7422297Y3389254D01*
X7429354Y3344696D01*
X7430212Y3343012D01*
X7467767Y3269307D01*
X7486950Y3231658D01*
X7576658Y3141950D01*
X7578339Y3141094D01*
X7578341Y3141092D01*
X7614163Y3122840D01*
X7689696Y3084354D01*
X7739478Y3076469D01*
X7782557Y3069646D01*
X7782561Y3069646D01*
X7783481Y3069500D01*
X7915000Y3069500D01*
X8046518Y3069501D01*
X8047438Y3069647D01*
X8047442Y3069647D01*
X8091160Y3076571D01*
X8140304Y3084354D01*
X8215837Y3122840D01*
X8251659Y3141092D01*
X8251661Y3141094D01*
X8253342Y3141950D01*
X8343050Y3231658D01*
X8362234Y3269307D01*
X8399788Y3343012D01*
X8400646Y3344696D01*
X8415500Y3438481D01*
X8415499Y3701518D01*
X8415303Y3702759D01*
X8407271Y3753470D01*
X8400646Y3795304D01*
X8391602Y3813053D01*
X8343908Y3906659D01*
X8343906Y3906661D01*
X8343050Y3908342D01*
X8253342Y3998050D01*
X8251661Y3998906D01*
X8251659Y3998908D01*
X8141988Y4054788D01*
X8140304Y4055646D01*
X8090522Y4063531D01*
X8047443Y4070354D01*
X8047439Y4070354D01*
X8046519Y4070500D01*
X8045581Y4070500D01*
X7915001Y4070499D01*
X7783482Y4070499D01*
X7782562Y4070353D01*
X7782558Y4070353D01*
X7738840Y4063429D01*
X7689696Y4055646D01*
X7688012Y4054788D01*
X7578341Y3998908D01*
X7578339Y3998906D01*
X7576658Y3998050D01*
X7486950Y3908342D01*
X7486094Y3906661D01*
X7486092Y3906659D01*
X7457568Y3850676D01*
X7429354Y3795304D01*
X7419645Y3734002D01*
X7419129Y3730746D01*
X7409531Y3715084D01*
X7395424Y3710500D01*
X6567281Y3710500D01*
X6550310Y3717529D01*
X5532878Y4734961D01*
X5529829Y4735778D01*
X5529827Y4735779D01*
X5516118Y4739452D01*
X5510330Y4741849D01*
X5495301Y4750526D01*
X5414750Y4750527D01*
X5414648Y4750527D01*
X5414647Y4750526D01*
X5107198Y4750526D01*
X5090227Y4757555D01*
X5086413Y4762526D01*
X5058621Y4810664D01*
X5057572Y4812481D01*
X4969639Y4886266D01*
X4861772Y4925526D01*
X4746984Y4925526D01*
X4639118Y4886266D01*
X4566970Y4825727D01*
X4560669Y4820440D01*
X4545242Y4814825D01*
X4003488Y4814824D01*
X3929501Y4814824D01*
X3928350Y4814595D01*
X3928349Y4814595D01*
X3924503Y4813830D01*
X3900186Y4808994D01*
X3866942Y4786782D01*
X3844730Y4753538D01*
X3844270Y4751223D01*
X3844269Y4751222D01*
X3844131Y4750527D01*
X3838899Y4724224D01*
X3838899Y4723040D01*
X3838900Y4505024D01*
X3831871Y4488054D01*
X3814900Y4481024D01*
X3799473Y4486639D01*
X3797787Y4488054D01*
X3725367Y4548822D01*
X3617500Y4588082D01*
X3502712Y4588082D01*
X3394846Y4548822D01*
X3306912Y4475037D01*
X3303750Y4469561D01*
X3271143Y4413082D01*
X3249518Y4375627D01*
X3249154Y4373563D01*
X3249153Y4373560D01*
X3236100Y4299531D01*
X3229585Y4262582D01*
X3229950Y4260512D01*
X3249153Y4151604D01*
X3249154Y4151601D01*
X3249518Y4149537D01*
X3306912Y4050127D01*
X3394845Y3976342D01*
X3502712Y3937082D01*
X3617500Y3937082D01*
X3725367Y3976342D01*
X3811361Y4048500D01*
X3828880Y4054024D01*
X3845173Y4045542D01*
X3846743Y4043448D01*
X3866898Y4013283D01*
X3870482Y3995268D01*
X3866898Y3986617D01*
X3846043Y3955405D01*
X3846041Y3955400D01*
X3844730Y3953438D01*
X3844270Y3951123D01*
X3844269Y3951122D01*
X3841421Y3936805D01*
X3838899Y3924124D01*
X3838900Y3806948D01*
X3838900Y3726759D01*
X3831871Y3709789D01*
X3814900Y3702759D01*
X3799474Y3708374D01*
X3791707Y3714891D01*
X3791703Y3714893D01*
X3790097Y3716241D01*
X3682230Y3755501D01*
X3567442Y3755501D01*
X3459576Y3716241D01*
X3371642Y3642456D01*
X3314248Y3543046D01*
X3313884Y3540982D01*
X3313883Y3540979D01*
X3300716Y3466302D01*
X3294315Y3430001D01*
X3294680Y3427931D01*
X3313883Y3319023D01*
X3313884Y3319020D01*
X3314248Y3316956D01*
X3371642Y3217546D01*
X3459575Y3143761D01*
X3567442Y3104501D01*
X3682230Y3104501D01*
X3790097Y3143761D01*
X3797429Y3149913D01*
X3801109Y3153001D01*
X3818628Y3158525D01*
X3834921Y3150043D01*
X3840445Y3132524D01*
X3840077Y3129946D01*
X3838899Y3124024D01*
X3838900Y2999826D01*
X3838900Y2906549D01*
X3831871Y2889579D01*
X3814900Y2882549D01*
X3799473Y2888164D01*
X3731867Y2944892D01*
X3730261Y2946240D01*
X3622394Y2985500D01*
X3507606Y2985500D01*
X3399740Y2946240D01*
X3311806Y2872455D01*
X3310757Y2870638D01*
X3282965Y2822500D01*
X3268392Y2811318D01*
X3262180Y2810500D01*
X3187281Y2810500D01*
X3170310Y2817529D01*
X2502529Y3485310D01*
X2495500Y3502281D01*
X2495500Y3787028D01*
X2496318Y3793240D01*
X2496372Y3793439D01*
X2500809Y3810000D01*
X2479935Y3887904D01*
X2457740Y3910099D01*
X2422905Y3944935D01*
X2345000Y3965809D01*
X2328238Y3961318D01*
X2322028Y3960500D01*
X2145081Y3960500D01*
X2128110Y3967529D01*
X2121081Y3984500D01*
X2128110Y4001471D01*
X2129654Y4002885D01*
X2131737Y4004633D01*
X2173750Y4039886D01*
X2213595Y4108900D01*
X2230095Y4137479D01*
X2231144Y4139296D01*
X2231508Y4141360D01*
X2231509Y4141363D01*
X2250712Y4250271D01*
X2251077Y4252341D01*
X2235582Y4340219D01*
X2231509Y4363319D01*
X2231508Y4363322D01*
X2231144Y4365386D01*
X2209520Y4402841D01*
X2174799Y4462979D01*
X2173750Y4464796D01*
X2085817Y4538581D01*
X1977950Y4577841D01*
X1863162Y4577841D01*
X1755296Y4538581D01*
X1710527Y4501016D01*
X1693009Y4495492D01*
X1676716Y4503974D01*
X1671101Y4519401D01*
X1671100Y4723049D01*
X1671100Y4724223D01*
X1665270Y4753538D01*
X1664378Y4754873D01*
X1664380Y4772855D01*
X1677369Y4785843D01*
X1695738Y4785841D01*
X1701979Y4782054D01*
X1736257Y4753291D01*
X1844124Y4714031D01*
X1958912Y4714031D01*
X2066779Y4753291D01*
X2154712Y4827076D01*
X2212106Y4926486D01*
X2212470Y4928550D01*
X2212471Y4928553D01*
X2231674Y5037461D01*
X2232039Y5039531D01*
X2225851Y5074624D01*
X2212471Y5150509D01*
X2212470Y5150512D01*
X2212106Y5152576D01*
X2208251Y5159254D01*
X2155761Y5250169D01*
X2154712Y5251986D01*
X2066779Y5325771D01*
X1958912Y5365031D01*
X1844124Y5365031D01*
X1736258Y5325771D01*
X1714053Y5307139D01*
X1710528Y5304181D01*
X1693009Y5298657D01*
X1676716Y5307139D01*
X1671101Y5322566D01*
X1671100Y5523149D01*
X1671100Y5524323D01*
X1665270Y5553638D01*
X1663957Y5555603D01*
X1663955Y5555608D01*
X1643102Y5586817D01*
X1639518Y5604832D01*
X1643102Y5613483D01*
X1663957Y5644695D01*
X1663959Y5644700D01*
X1665270Y5646662D01*
X1665601Y5648327D01*
X1678350Y5661077D01*
X1696719Y5661077D01*
X1708320Y5650904D01*
X1721806Y5627545D01*
X1809739Y5553760D01*
X1917606Y5514500D01*
X2032394Y5514500D01*
X2056132Y5523140D01*
X3838899Y5523140D01*
X3838900Y5399599D01*
X3838900Y5275927D01*
X3844730Y5246612D01*
X3866942Y5213368D01*
X3900186Y5191156D01*
X3902501Y5190696D01*
X3902502Y5190695D01*
X3911512Y5188903D01*
X3929500Y5185325D01*
X4004042Y5185325D01*
X4545241Y5185326D01*
X4560667Y5179711D01*
X4639117Y5113884D01*
X4746984Y5074624D01*
X4861772Y5074624D01*
X4969639Y5113884D01*
X5057572Y5187669D01*
X5114966Y5287079D01*
X5115330Y5289143D01*
X5115331Y5289146D01*
X5134534Y5398054D01*
X5134899Y5400124D01*
X5123911Y5462442D01*
X5115331Y5511102D01*
X5115330Y5511105D01*
X5114966Y5513169D01*
X5057572Y5612579D01*
X4969639Y5686364D01*
X4861772Y5725624D01*
X4746984Y5725624D01*
X4639118Y5686364D01*
X4560672Y5620540D01*
X4545245Y5614925D01*
X4003488Y5614924D01*
X3929501Y5614924D01*
X3928350Y5614695D01*
X3928349Y5614695D01*
X3924493Y5613928D01*
X3900186Y5609094D01*
X3866942Y5586882D01*
X3844730Y5553638D01*
X3844270Y5551323D01*
X3844269Y5551322D01*
X3839952Y5529616D01*
X3838899Y5524324D01*
X3838899Y5523140D01*
X2056132Y5523140D01*
X2140261Y5553760D01*
X2228194Y5627545D01*
X2257035Y5677500D01*
X2271608Y5688682D01*
X2277820Y5689500D01*
X2445327Y5689500D01*
X2460356Y5698177D01*
X2466144Y5700574D01*
X2479851Y5704247D01*
X2482904Y5705065D01*
X2539935Y5762095D01*
X3390311Y6612471D01*
X3407281Y6619500D01*
X5692719Y6619500D01*
X5709690Y6612471D01*
X7112591Y5209569D01*
X7112593Y5209568D01*
X7127096Y5195065D01*
X7143860Y5190573D01*
X7149638Y5188180D01*
X7164673Y5179500D01*
X7245225Y5179499D01*
X7245327Y5179499D01*
X7245328Y5179500D01*
X7377008Y5179500D01*
X7393979Y5172471D01*
X7400713Y5159254D01*
X7409354Y5104696D01*
X7410212Y5103012D01*
X7441503Y5041601D01*
X7466950Y4991658D01*
X7556658Y4901950D01*
X7558339Y4901094D01*
X7558341Y4901092D01*
X7668012Y4845212D01*
X7669696Y4844354D01*
X7719478Y4836469D01*
X7762557Y4829646D01*
X7762561Y4829646D01*
X7763481Y4829500D01*
X7895000Y4829500D01*
X8026518Y4829501D01*
X8027438Y4829647D01*
X8027442Y4829647D01*
X8071160Y4836571D01*
X8120304Y4844354D01*
X8121988Y4845212D01*
X8231659Y4901092D01*
X8231661Y4901094D01*
X8233342Y4901950D01*
X8323050Y4991658D01*
X8348498Y5041601D01*
X8379788Y5103012D01*
X8380646Y5104696D01*
X8389287Y5159254D01*
X8395354Y5197557D01*
X8395354Y5197561D01*
X8395500Y5198481D01*
X8395499Y5461518D01*
X8380646Y5555304D01*
X8351463Y5612579D01*
X8323908Y5666659D01*
X8323906Y5666661D01*
X8323050Y5668342D01*
X8233342Y5758050D01*
X8231661Y5758906D01*
X8231659Y5758908D01*
X8121988Y5814788D01*
X8120304Y5815646D01*
X8070522Y5823531D01*
X8027443Y5830354D01*
X8027439Y5830354D01*
X8026519Y5830500D01*
X8025581Y5830500D01*
X7895001Y5830499D01*
X7763482Y5830499D01*
X7762562Y5830353D01*
X7762558Y5830353D01*
X7718840Y5823429D01*
X7669696Y5815646D01*
X7668012Y5814788D01*
X7558341Y5758908D01*
X7558339Y5758906D01*
X7556658Y5758050D01*
X7466950Y5668342D01*
X7466094Y5666661D01*
X7466092Y5666659D01*
X7438537Y5612579D01*
X7409354Y5555304D01*
X7402353Y5511102D01*
X7400713Y5500746D01*
X7391115Y5485084D01*
X7377008Y5480500D01*
X7277282Y5480500D01*
X7260311Y5487529D01*
X5857409Y6890430D01*
X5842904Y6904935D01*
X5839855Y6905752D01*
X5839853Y6905753D01*
X5826144Y6909426D01*
X5820356Y6911823D01*
X5805327Y6920500D01*
X5724776Y6920501D01*
X5724674Y6920501D01*
X5724673Y6920500D01*
X3294673Y6920500D01*
X3279644Y6911823D01*
X3273856Y6909426D01*
X3257096Y6904935D01*
X3254861Y6902700D01*
X3200065Y6847905D01*
X2349689Y5997529D01*
X2332719Y5990500D01*
X2277820Y5990500D01*
X2260849Y5997529D01*
X2257035Y6002500D01*
X2229243Y6050638D01*
X2228194Y6052455D01*
X2140261Y6126240D01*
X2032394Y6165500D01*
X1917606Y6165500D01*
X1809740Y6126240D01*
X1721806Y6052455D01*
X1720757Y6050638D01*
X1709980Y6031972D01*
X1695407Y6020790D01*
X1677195Y6023187D01*
X1666013Y6037760D01*
X1665656Y6048654D01*
X1666681Y6053804D01*
X1671101Y6076026D01*
X1671100Y6324423D01*
X1665270Y6353738D01*
X1643058Y6386982D01*
X1609814Y6409194D01*
X1607499Y6409654D01*
X1607498Y6409655D01*
X1581661Y6414794D01*
X1581662Y6414794D01*
X1580500Y6415025D01*
X1570806Y6415025D01*
X1553835Y6422054D01*
X1546806Y6439025D01*
X1553835Y6455996D01*
X2230310Y7132471D01*
X2247281Y7139500D01*
X7360500Y7139500D01*
X7377471Y7132471D01*
X7384500Y7115500D01*
X7384501Y6978482D01*
X7399354Y6884696D01*
X7400212Y6883012D01*
X7418101Y6847904D01*
X7456950Y6771658D01*
X7546658Y6681950D01*
X7548339Y6681094D01*
X7548341Y6681092D01*
X7658012Y6625212D01*
X7659696Y6624354D01*
X7709478Y6616469D01*
X7752557Y6609646D01*
X7752561Y6609646D01*
X7753481Y6609500D01*
X7885000Y6609500D01*
X8016518Y6609501D01*
X8017438Y6609647D01*
X8017442Y6609647D01*
X8079654Y6619500D01*
X8110304Y6624354D01*
X8111988Y6625212D01*
X8221659Y6681092D01*
X8221661Y6681094D01*
X8223342Y6681950D01*
X8313050Y6771658D01*
X8351900Y6847904D01*
X8369788Y6883012D01*
X8370646Y6884696D01*
X8385500Y6978481D01*
X8385499Y7241518D01*
X8370646Y7335304D01*
X8369788Y7336988D01*
X8313908Y7446659D01*
X8313906Y7446661D01*
X8313050Y7448342D01*
X8223342Y7538050D01*
X8221661Y7538906D01*
X8221659Y7538908D01*
X8111988Y7594788D01*
X8110304Y7595646D01*
X8060522Y7603531D01*
X8017443Y7610354D01*
X8017439Y7610354D01*
X8016519Y7610500D01*
X8015581Y7610500D01*
X7885001Y7610499D01*
X7753482Y7610499D01*
X7752562Y7610353D01*
X7752558Y7610353D01*
X7708840Y7603429D01*
X7659696Y7595646D01*
X7658012Y7594788D01*
X7548341Y7538908D01*
X7548339Y7538906D01*
X7546658Y7538050D01*
X7456950Y7448342D01*
X7456384Y7448908D01*
X7443136Y7440795D01*
X7439388Y7440500D01*
X2134673Y7440500D01*
X2119644Y7431823D01*
X2113856Y7429426D01*
X2097096Y7424935D01*
X2094861Y7422700D01*
X2040065Y7367905D01*
X1094213Y6422053D01*
X1077243Y6415024D01*
X1045313Y6415024D01*
X1028342Y6422053D01*
X1024528Y6427024D01*
X1019537Y6435669D01*
X1018488Y6437486D01*
X930555Y6511271D01*
X822688Y6550531D01*
X707900Y6550531D01*
X600034Y6511271D01*
X512100Y6437486D01*
X454706Y6338076D01*
X454342Y6336012D01*
X454341Y6336009D01*
X435175Y6227310D01*
X434773Y6225031D01*
X435138Y6222961D01*
X454341Y6114053D01*
X454342Y6114050D01*
X454706Y6111986D01*
X512100Y6012576D01*
X600033Y5938791D01*
X707900Y5899531D01*
X734901Y5899531D01*
X751872Y5892502D01*
X758901Y5875531D01*
X758902Y5752207D01*
X751873Y5735237D01*
X734902Y5728207D01*
X643524Y5728207D01*
X535658Y5688947D01*
X447724Y5615162D01*
X390330Y5515752D01*
X389966Y5513688D01*
X389965Y5513685D01*
X370799Y5404986D01*
X370397Y5402707D01*
X370762Y5400637D01*
X389965Y5291729D01*
X389966Y5291726D01*
X390330Y5289662D01*
X447724Y5190252D01*
X535657Y5116467D01*
X643524Y5077207D01*
X734901Y5077207D01*
X751872Y5070178D01*
X758901Y5053207D01*
X758902Y4918998D01*
X751873Y4902028D01*
X734902Y4894998D01*
X726694Y4896445D01*
X691636Y4909204D01*
X691637Y4909204D01*
X689661Y4909923D01*
X574873Y4909923D01*
X467007Y4870663D01*
X379073Y4796878D01*
X321679Y4697468D01*
X321315Y4695404D01*
X321314Y4695401D01*
X302391Y4588082D01*
X301746Y4584423D01*
X100500Y4584423D01*
X100500Y8705500D01*
X107529Y8722471D01*
X124500Y8729500D01*
X9285500Y8729500D01*
X9302471Y8722471D01*
G37*
%TD.AperFunction*%
%TD*%
M02*
