M48
; DRILL file {KiCad (6.0.8)} date Wed Aug  7 09:19:53 2024
; FORMAT={-:-/ absolute / metric / decimal}
; #@! TF.CreationDate,2024-08-07T09:19:53+08:00
; #@! TF.GenerationSoftware,Kicad,Pcbnew,(6.0.8)
; #@! TF.FileFunction,Plated,1,2,PTH
FMAT,2
METRIC
; #@! TA.AperFunction,Plated,PTH,ViaDrill
T1C0.300
%
G90
G05
T1
X0.632Y4.584
X0.67Y3.822
X0.701Y5.403
X0.706Y3.0
X0.765Y6.225
X1.902Y5.04
X1.905Y3.43
X1.921Y4.252
X1.955Y2.61
X1.975Y5.84
X3.56Y4.263
X3.565Y2.66
X3.596Y5.012
X3.625Y3.43
X3.693Y5.858
X4.645Y2.961
X4.765Y6.23
X4.804Y5.4
X4.804Y4.6
X4.844Y3.791
X5.305Y0.77
X6.085Y0.71
X6.135Y1.87
X6.705Y1.95
T0
M30
