%TF.GenerationSoftware,KiCad,Pcbnew,(6.0.8)*%
%TF.CreationDate,2024-08-07T09:19:53+08:00*%
%TF.ProjectId,Burning_board,4275726e-696e-4675-9f62-6f6172642e6b,rev?*%
%TF.SameCoordinates,Original*%
%TF.FileFunction,Legend,Bot*%
%TF.FilePolarity,Positive*%
%FSLAX46Y46*%
G04 Gerber Fmt 4.6, Leading zero omitted, Abs format (unit mm)*
G04 Created by KiCad (PCBNEW (6.0.8)) date 2024-08-07 09:19:53*
%MOMM*%
%LPD*%
G01*
G04 APERTURE LIST*
%ADD10C,0.150000*%
%ADD11C,0.120000*%
%ADD12C,0.152400*%
G04 APERTURE END LIST*
D10*
X6246904Y6969524D02*
X6246904Y7350477D01*
X6627857Y7388572D01*
X6589761Y7350477D01*
X6551666Y7274286D01*
X6551666Y7083810D01*
X6589761Y7007620D01*
X6627857Y6969524D01*
X6704047Y6931429D01*
X6894523Y6931429D01*
X6970714Y6969524D01*
X7008809Y7007620D01*
X7046904Y7083810D01*
X7046904Y7274286D01*
X7008809Y7350477D01*
X6970714Y7388572D01*
X7216904Y1479524D02*
X6416904Y1479524D01*
X6416904Y1289048D01*
X6455000Y1174762D01*
X6531190Y1098572D01*
X6607380Y1060477D01*
X6759761Y1022381D01*
X6874047Y1022381D01*
X7026428Y1060477D01*
X7102619Y1098572D01*
X7178809Y1174762D01*
X7216904Y1289048D01*
X7216904Y1479524D01*
X7070714Y3332381D02*
X7108809Y3370477D01*
X7146904Y3484762D01*
X7146904Y3560953D01*
X7108809Y3675239D01*
X7032619Y3751429D01*
X6956428Y3789524D01*
X6804047Y3827620D01*
X6689761Y3827620D01*
X6537380Y3789524D01*
X6461190Y3751429D01*
X6385000Y3675239D01*
X6346904Y3560953D01*
X6346904Y3484762D01*
X6385000Y3370477D01*
X6423095Y3332381D01*
X6393095Y5909524D02*
X6355000Y5871429D01*
X6316904Y5795239D01*
X6316904Y5604762D01*
X6355000Y5528572D01*
X6393095Y5490477D01*
X6469285Y5452381D01*
X6545476Y5452381D01*
X6659761Y5490477D01*
X7116904Y5947620D01*
X7116904Y5452381D01*
X7116904Y4690477D02*
X7116904Y5147620D01*
X7116904Y4919048D02*
X6316904Y4919048D01*
X6431190Y4995239D01*
X6507380Y5071429D01*
X6545476Y5147620D01*
D11*
%TO.C,C1*%
X5985000Y1647836D02*
X5985000Y1432164D01*
X5265000Y1647836D02*
X5265000Y1432164D01*
D12*
%TO.C,J3*%
X1053200Y869400D02*
X1053200Y2152735D01*
X1053200Y7930600D02*
X4456800Y7930600D01*
X1053200Y6647265D02*
X1053200Y7930600D01*
X4456800Y7930600D02*
X4456800Y6647265D01*
X4456800Y2152735D02*
X4456800Y869400D01*
X4456800Y869400D02*
X1053200Y869400D01*
%TD*%
M02*
