%TF.GenerationSoftware,KiCad,Pcbnew,(6.0.8)*%
%TF.CreationDate,2024-08-07T09:19:53+08:00*%
%TF.ProjectId,Burning_board,4275726e-696e-4675-9f62-6f6172642e6b,rev?*%
%TF.SameCoordinates,Original*%
%TF.FileFunction,Copper,L1,Top*%
%TF.FilePolarity,Positive*%
%FSLAX46Y46*%
G04 Gerber Fmt 4.6, Leading zero omitted, Abs format (unit mm)*
G04 Created by KiCad (PCBNEW (6.0.8)) date 2024-08-07 09:19:53*
%MOMM*%
%LPD*%
G01*
G04 APERTURE LIST*
%TA.AperFunction,SMDPad,CuDef*%
%ADD10R,0.660000X0.230000*%
%TD*%
%TA.AperFunction,SMDPad,CuDef*%
%ADD11R,0.660000X0.350000*%
%TD*%
%TA.AperFunction,SMDPad,CuDef*%
%ADD12R,1.000000X0.500000*%
%TD*%
%TA.AperFunction,SMDPad,CuDef*%
%ADD13R,1.700000X1.200000*%
%TD*%
%TA.AperFunction,ViaPad*%
%ADD14C,0.450000*%
%TD*%
%TA.AperFunction,Conductor*%
%ADD15C,0.500000*%
%TD*%
%TA.AperFunction,Conductor*%
%ADD16C,0.100000*%
%TD*%
G04 APERTURE END LIST*
D10*
%TO.P,J1,1,1*%
%TO.N,/BATT_MON*%
X1400000Y2630000D03*
%TO.P,J1,2,2*%
%TO.N,+3V3*%
X4110000Y2630000D03*
%TO.P,J1,3,3*%
%TO.N,/SD_CLK*%
X1400000Y3030000D03*
%TO.P,J1,4,4*%
%TO.N,+3V3*%
X4110000Y3030000D03*
%TO.P,J1,5,5*%
%TO.N,/SD_DATA2*%
X1400000Y3430000D03*
%TO.P,J1,6,6*%
%TO.N,/TX*%
X4110000Y3430000D03*
%TO.P,J1,7,7*%
%TO.N,+3V3*%
X1400000Y3830000D03*
%TO.P,J1,8,8*%
%TO.N,/RX*%
X4110000Y3830000D03*
%TO.P,J1,9,9*%
%TO.N,/SD_DATA3*%
X1400000Y4230000D03*
%TO.P,J1,10,10*%
%TO.N,/SDA*%
X4110000Y4230000D03*
%TO.P,J1,11,11*%
%TO.N,/SD_CMD*%
X1400000Y4630000D03*
%TO.P,J1,12,12*%
%TO.N,/SCL*%
X4110000Y4630000D03*
%TO.P,J1,13,13*%
%TO.N,/SD_DATA0*%
X1400000Y5030000D03*
%TO.P,J1,14,14*%
%TO.N,GND*%
X4110000Y5030000D03*
%TO.P,J1,15,15*%
%TO.N,/SD_DATA1*%
X1400000Y5430000D03*
%TO.P,J1,16,16*%
%TO.N,/PCLK*%
X4110000Y5430000D03*
%TO.P,J1,17,17*%
%TO.N,/IO21*%
X1400000Y5830000D03*
%TO.P,J1,18,18*%
%TO.N,GND*%
X4110000Y5830000D03*
%TO.P,J1,19,19*%
%TO.N,/IO5*%
X1400000Y6230000D03*
%TO.P,J1,20,20*%
%TO.N,GND*%
X4110000Y6230000D03*
D11*
%TO.P,J1,S1*%
%TO.N,N/C*%
X1400000Y2155000D03*
%TO.P,J1,S2*%
X4110000Y2155000D03*
%TO.P,J1,S3*%
X1400000Y6705000D03*
%TO.P,J1,S4*%
X4110000Y6705000D03*
%TD*%
D12*
%TO.P,J2,1,1*%
%TO.N,+3V3*%
X6032500Y2390000D03*
%TO.P,J2,2,2*%
%TO.N,/TX*%
X6032500Y3190000D03*
%TO.P,J2,3,3*%
%TO.N,/RX*%
X6032500Y3990000D03*
%TO.P,J2,4,4*%
%TO.N,/PCLK*%
X6032500Y4790000D03*
%TO.P,J2,5,5*%
%TO.N,GND*%
X6032500Y5590000D03*
%TO.P,J2,6,6*%
X6032500Y6390000D03*
D13*
%TO.P,J2,S1,SHIELD*%
X7982500Y1090000D03*
%TO.P,J2,S2,SHIELD*%
X7982500Y7690000D03*
%TD*%
D14*
%TO.N,+3V3*%
X6135000Y1870000D03*
X6705000Y1950000D03*
X670333Y3821943D03*
X4645000Y2961073D03*
X3565000Y2660000D03*
%TO.N,GND*%
X5305000Y770000D03*
X3692885Y5857590D03*
X3596272Y5012480D03*
X6085000Y710000D03*
X4765000Y6230000D03*
%TO.N,/BATT_MON*%
X1955000Y2610000D03*
%TO.N,/SD_CLK*%
X705622Y2999826D03*
%TO.N,/SD_DATA2*%
X1905000Y3430000D03*
%TO.N,/TX*%
X3624836Y3430001D03*
%TO.N,/RX*%
X4844293Y3791083D03*
%TO.N,/SD_DATA3*%
X1920556Y4252341D03*
%TO.N,/SDA*%
X3560106Y4262582D03*
%TO.N,/SD_CMD*%
X632267Y4584423D03*
%TO.N,/SCL*%
X4804378Y4600026D03*
%TO.N,/SD_DATA0*%
X1901518Y5039531D03*
%TO.N,/SD_DATA1*%
X700918Y5402707D03*
%TO.N,/PCLK*%
X4804378Y5400124D03*
%TO.N,/IO21*%
X1975000Y5840000D03*
%TO.N,/IO5*%
X765294Y6225031D03*
%TD*%
D15*
%TO.N,+3V3*%
X5216073Y2390000D02*
X4645000Y2961073D01*
X6032500Y2390000D02*
X6032500Y1972500D01*
D16*
X4645000Y2961073D02*
X4178927Y2961073D01*
D15*
X6032500Y2390000D02*
X6265000Y2390000D01*
X6032500Y2390000D02*
X5216073Y2390000D01*
D16*
X670333Y3821943D02*
X1391943Y3821943D01*
D15*
X6265000Y2390000D02*
X6705000Y1950000D01*
D16*
X4110000Y2630000D02*
X3595000Y2630000D01*
D15*
X6032500Y1972500D02*
X6135000Y1870000D01*
D16*
X4178927Y2961073D02*
X4110000Y3030000D01*
X4110000Y3030000D02*
X4110000Y2630000D01*
X1391943Y3821943D02*
X1400000Y3830000D01*
X3595000Y2630000D02*
X3565000Y2660000D01*
%TO.N,GND*%
X4110000Y5830000D02*
X3720475Y5830000D01*
X3613792Y5030000D02*
X3596272Y5012480D01*
X4110000Y5030000D02*
X3613792Y5030000D01*
X4765000Y6230000D02*
X4110000Y6230000D01*
X3720475Y5830000D02*
X3692885Y5857590D01*
%TO.N,/BATT_MON*%
X1400000Y2630000D02*
X1935000Y2630000D01*
X1935000Y2630000D02*
X1955000Y2610000D01*
%TO.N,/SD_CLK*%
X705622Y2999826D02*
X1369826Y2999826D01*
X1369826Y2999826D02*
X1400000Y3030000D01*
%TO.N,/SD_DATA2*%
X1400000Y3430000D02*
X1905000Y3430000D01*
%TO.N,/TX*%
X4123417Y3416583D02*
X5805917Y3416583D01*
X5805917Y3416583D02*
X6032500Y3190000D01*
X4110000Y3430000D02*
X4123417Y3416583D01*
X4110000Y3430000D02*
X3624836Y3430001D01*
%TO.N,/RX*%
X5043210Y3990000D02*
X4844293Y3791083D01*
X4110000Y3830000D02*
X4805376Y3830000D01*
X6032500Y3990000D02*
X5043210Y3990000D01*
X4805376Y3830000D02*
X4844293Y3791083D01*
%TO.N,/SD_DATA3*%
X1898215Y4230000D02*
X1920556Y4252341D01*
X1400000Y4230000D02*
X1898215Y4230000D01*
%TO.N,/SDA*%
X4110000Y4230000D02*
X3592688Y4230000D01*
X3592688Y4230000D02*
X3560106Y4262582D01*
%TO.N,/SD_CMD*%
X632267Y4584423D02*
X1354423Y4584423D01*
X1354423Y4584423D02*
X1400000Y4630000D01*
%TO.N,/SCL*%
X4139974Y4600026D02*
X4110000Y4630000D01*
X4804378Y4600026D02*
X4139974Y4600026D01*
%TO.N,/SD_DATA0*%
X1400000Y5030000D02*
X1891987Y5030000D01*
X1891987Y5030000D02*
X1901518Y5039531D01*
%TO.N,/SD_DATA1*%
X1372707Y5402707D02*
X1400000Y5430000D01*
X700918Y5402707D02*
X1372707Y5402707D01*
%TO.N,/PCLK*%
X4804378Y5400124D02*
X5414502Y4790000D01*
X5414502Y4790000D02*
X6032500Y4790000D01*
X4139876Y5400124D02*
X4110000Y5430000D01*
X4804378Y5400124D02*
X4139876Y5400124D01*
%TO.N,/IO21*%
X1965000Y5830000D02*
X1975000Y5840000D01*
X1400000Y5830000D02*
X1965000Y5830000D01*
%TO.N,/IO5*%
X765294Y6225031D02*
X1395031Y6225031D01*
X1395031Y6225031D02*
X1400000Y6230000D01*
%TD*%
%TA.AperFunction,Conductor*%
%TO.N,GND*%
G36*
X9302471Y8722471D02*
G01*
X9309500Y8705500D01*
X9309500Y124500D01*
X9302471Y107529D01*
X9285500Y100500D01*
X124500Y100500D01*
X107529Y107529D01*
X100500Y124500D01*
X100500Y4584423D01*
X301746Y4584423D01*
X302111Y4582353D01*
X321314Y4473445D01*
X321315Y4473442D01*
X321679Y4471378D01*
X322728Y4469561D01*
X343776Y4433105D01*
X379073Y4371968D01*
X467006Y4298183D01*
X574873Y4258923D01*
X689661Y4258923D01*
X797528Y4298183D01*
X885461Y4371968D01*
X914302Y4421923D01*
X928875Y4433105D01*
X935087Y4433923D01*
X963645Y4433923D01*
X980616Y4426894D01*
X987645Y4409923D01*
X983600Y4396589D01*
X977575Y4387571D01*
X975331Y4384213D01*
X974871Y4381898D01*
X974870Y4381897D01*
X971175Y4363319D01*
X969500Y4354899D01*
X969501Y4105102D01*
X975331Y4075787D01*
X976645Y4073821D01*
X997015Y4043333D01*
X1000598Y4025317D01*
X997014Y4016666D01*
X984525Y3997975D01*
X969252Y3987770D01*
X951236Y3991354D01*
X943785Y3999309D01*
X941344Y4003538D01*
X923527Y4034398D01*
X835594Y4108183D01*
X727727Y4147443D01*
X612939Y4147443D01*
X505073Y4108183D01*
X417139Y4034398D01*
X396110Y3997975D01*
X381370Y3972443D01*
X359745Y3934988D01*
X359381Y3932924D01*
X359380Y3932921D01*
X358499Y3927924D01*
X339812Y3821943D01*
X340177Y3819873D01*
X359380Y3710965D01*
X359381Y3710962D01*
X359745Y3708898D01*
X360794Y3707081D01*
X382485Y3669511D01*
X417139Y3609488D01*
X505072Y3535703D01*
X612939Y3496443D01*
X727727Y3496443D01*
X835594Y3535703D01*
X923527Y3609488D01*
X948777Y3653222D01*
X963349Y3664404D01*
X981561Y3662007D01*
X989517Y3654555D01*
X997015Y3643333D01*
X1000598Y3625317D01*
X997015Y3616667D01*
X991373Y3608222D01*
X975331Y3584213D01*
X974871Y3581898D01*
X974870Y3581897D01*
X971609Y3565504D01*
X969500Y3554899D01*
X969500Y3553715D01*
X969501Y3429470D01*
X969501Y3305102D01*
X975331Y3275787D01*
X976645Y3273821D01*
X997015Y3243333D01*
X1000598Y3225317D01*
X997014Y3216666D01*
X996013Y3215168D01*
X980739Y3204963D01*
X962724Y3208547D01*
X959091Y3211805D01*
X958816Y3212281D01*
X870883Y3286066D01*
X763016Y3325326D01*
X648228Y3325326D01*
X540362Y3286066D01*
X452428Y3212281D01*
X395034Y3112871D01*
X394670Y3110807D01*
X394669Y3110804D01*
X392318Y3097470D01*
X375101Y2999826D01*
X375466Y2997756D01*
X394669Y2888848D01*
X394670Y2888845D01*
X395034Y2886781D01*
X452428Y2787371D01*
X540361Y2713586D01*
X648228Y2674326D01*
X763016Y2674326D01*
X870883Y2713586D01*
X930074Y2763253D01*
X947592Y2768777D01*
X963885Y2760295D01*
X969500Y2744868D01*
X969501Y2505102D01*
X975331Y2475787D01*
X997543Y2442543D01*
X999511Y2441228D01*
X1001181Y2439558D01*
X1000241Y2438618D01*
X1007882Y2427165D01*
X1004286Y2409152D01*
X1000879Y2405744D01*
X1001181Y2405442D01*
X999511Y2403772D01*
X997543Y2402457D01*
X975331Y2369213D01*
X974871Y2366898D01*
X974870Y2366897D01*
X972799Y2356486D01*
X969500Y2339899D01*
X969501Y1970102D01*
X975331Y1940787D01*
X997543Y1907543D01*
X1030787Y1885331D01*
X1033102Y1884871D01*
X1033103Y1884870D01*
X1054809Y1880553D01*
X1060101Y1879500D01*
X1061285Y1879500D01*
X1401441Y1879501D01*
X1739898Y1879501D01*
X1741049Y1879730D01*
X1741050Y1879730D01*
X1746475Y1880809D01*
X1769213Y1885331D01*
X1802457Y1907543D01*
X1824669Y1940787D01*
X1825131Y1943107D01*
X1830269Y1968940D01*
X1830500Y1970101D01*
X1830499Y2274649D01*
X1837528Y2291620D01*
X1854499Y2298649D01*
X1862707Y2297202D01*
X1878044Y2291620D01*
X1897606Y2284500D01*
X2012394Y2284500D01*
X2120261Y2323760D01*
X2208194Y2397545D01*
X2265588Y2496955D01*
X2265952Y2499019D01*
X2265953Y2499022D01*
X2285156Y2607930D01*
X2285521Y2610000D01*
X2267455Y2712457D01*
X2265953Y2720978D01*
X2265952Y2720981D01*
X2265588Y2723045D01*
X2208194Y2822455D01*
X2120261Y2896240D01*
X2012394Y2935500D01*
X1897606Y2935500D01*
X1895634Y2934782D01*
X1895633Y2934782D01*
X1886272Y2931375D01*
X1862708Y2922798D01*
X1844357Y2923599D01*
X1831947Y2937142D01*
X1830500Y2945351D01*
X1830499Y3080500D01*
X1837528Y3097470D01*
X1854499Y3104500D01*
X1962394Y3104500D01*
X2070261Y3143760D01*
X2158194Y3217545D01*
X2215588Y3316955D01*
X2215952Y3319019D01*
X2215953Y3319022D01*
X2235156Y3427930D01*
X2235156Y3427931D01*
X2235521Y3430000D01*
X2235119Y3432279D01*
X2215953Y3540978D01*
X2215952Y3540981D01*
X2215588Y3543045D01*
X2158194Y3642455D01*
X2070261Y3716240D01*
X1962394Y3755500D01*
X1854500Y3755500D01*
X1837529Y3762529D01*
X1830500Y3779500D01*
X1830499Y3904454D01*
X1837528Y3921424D01*
X1854499Y3928454D01*
X1859072Y3927646D01*
X1859121Y3927924D01*
X1861187Y3927560D01*
X1863162Y3926841D01*
X1977950Y3926841D01*
X2085817Y3966101D01*
X2173750Y4039886D01*
X2225918Y4130244D01*
X2230095Y4137479D01*
X2231144Y4139296D01*
X2231508Y4141360D01*
X2231509Y4141363D01*
X2250712Y4250271D01*
X2251077Y4252341D01*
X2249271Y4262582D01*
X3229585Y4262582D01*
X3229950Y4260512D01*
X3249153Y4151604D01*
X3249154Y4151601D01*
X3249518Y4149537D01*
X3306912Y4050127D01*
X3394845Y3976342D01*
X3502712Y3937082D01*
X3617500Y3937082D01*
X3619470Y3937799D01*
X3619475Y3937800D01*
X3647292Y3947925D01*
X3665643Y3947123D01*
X3678053Y3933580D01*
X3679500Y3925372D01*
X3679501Y3779501D01*
X3672472Y3762531D01*
X3655501Y3755501D01*
X3567442Y3755501D01*
X3459576Y3716241D01*
X3371642Y3642456D01*
X3314248Y3543046D01*
X3313884Y3540982D01*
X3313883Y3540979D01*
X3297823Y3449898D01*
X3294315Y3430001D01*
X3294680Y3427931D01*
X3313883Y3319023D01*
X3313884Y3319020D01*
X3314248Y3316956D01*
X3371642Y3217546D01*
X3459575Y3143761D01*
X3567442Y3104501D01*
X3655500Y3104501D01*
X3672471Y3097472D01*
X3679500Y3080501D01*
X3679501Y2998991D01*
X3672472Y2982021D01*
X3655501Y2974991D01*
X3647293Y2976438D01*
X3624369Y2984781D01*
X3624370Y2984781D01*
X3622394Y2985500D01*
X3507606Y2985500D01*
X3399740Y2946240D01*
X3311806Y2872455D01*
X3254412Y2773045D01*
X3254048Y2770981D01*
X3254047Y2770978D01*
X3238213Y2681179D01*
X3234479Y2660000D01*
X3234844Y2657930D01*
X3254047Y2549022D01*
X3254048Y2549019D01*
X3254412Y2546955D01*
X3311806Y2447545D01*
X3399739Y2373760D01*
X3507606Y2334500D01*
X3622394Y2334500D01*
X3624370Y2335219D01*
X3647291Y2343562D01*
X3665643Y2342760D01*
X3678053Y2329218D01*
X3679500Y2321009D01*
X3679501Y2128281D01*
X3679501Y1970102D01*
X3685331Y1940787D01*
X3707543Y1907543D01*
X3740787Y1885331D01*
X3743102Y1884871D01*
X3743103Y1884870D01*
X3764809Y1880553D01*
X3770101Y1879500D01*
X3771285Y1879500D01*
X4111441Y1879501D01*
X4449898Y1879501D01*
X4451049Y1879730D01*
X4451050Y1879730D01*
X4456475Y1880809D01*
X4479213Y1885331D01*
X4512457Y1907543D01*
X4534669Y1940787D01*
X4535131Y1943107D01*
X4540269Y1968940D01*
X4540500Y1970101D01*
X4540499Y2339898D01*
X4534669Y2369213D01*
X4512457Y2402457D01*
X4510489Y2403772D01*
X4508819Y2405442D01*
X4509759Y2406382D01*
X4502118Y2417835D01*
X4505714Y2435848D01*
X4509122Y2439255D01*
X4508819Y2439558D01*
X4510489Y2441228D01*
X4512457Y2442543D01*
X4534669Y2475787D01*
X4535131Y2478107D01*
X4540269Y2503940D01*
X4540500Y2505101D01*
X4540500Y2511949D01*
X4547529Y2528920D01*
X4564500Y2535949D01*
X4581471Y2528920D01*
X4939972Y2170419D01*
X4943163Y2166467D01*
X4952173Y2152512D01*
X4952175Y2152510D01*
X4953248Y2150848D01*
X4954803Y2149622D01*
X4954804Y2149621D01*
X4981874Y2128281D01*
X4983987Y2126404D01*
X4988819Y2121572D01*
X4989625Y2120996D01*
X4989631Y2120991D01*
X5005117Y2109924D01*
X5006010Y2109254D01*
X5044884Y2078608D01*
X5049637Y2076939D01*
X5055639Y2073821D01*
X5059742Y2070889D01*
X5061641Y2070321D01*
X5061643Y2070320D01*
X5107203Y2056695D01*
X5108275Y2056346D01*
X5154979Y2039945D01*
X5156491Y2039814D01*
X5156896Y2039779D01*
X5160117Y2039500D01*
X5161189Y2039500D01*
X5168065Y2038494D01*
X5169635Y2038024D01*
X5169638Y2038024D01*
X5171536Y2037456D01*
X5223078Y2039481D01*
X5224019Y2039500D01*
X5658000Y2039500D01*
X5674971Y2032471D01*
X5682000Y2015500D01*
X5682000Y2012465D01*
X5681462Y2007414D01*
X5677549Y1989239D01*
X5677782Y1987271D01*
X5681834Y1953036D01*
X5682000Y1950215D01*
X5682000Y1943385D01*
X5685287Y1923634D01*
X5685442Y1922552D01*
X5691264Y1873362D01*
X5692123Y1871573D01*
X5693445Y1868820D01*
X5695484Y1862371D01*
X5696312Y1857397D01*
X5715881Y1821131D01*
X5719826Y1813819D01*
X5720332Y1812827D01*
X5741774Y1768174D01*
X5745092Y1764226D01*
X5745854Y1763464D01*
X5750001Y1757895D01*
X5751722Y1754706D01*
X5753178Y1753360D01*
X5789608Y1719684D01*
X5790287Y1719031D01*
X5907747Y1601572D01*
X5978669Y1550889D01*
X5980570Y1550321D01*
X5980571Y1550320D01*
X6088564Y1518024D01*
X6088565Y1518024D01*
X6090464Y1517456D01*
X6207060Y1522037D01*
X6208913Y1522754D01*
X6208914Y1522754D01*
X6314038Y1563424D01*
X6315886Y1564139D01*
X6405207Y1639221D01*
X6407738Y1643424D01*
X6432553Y1684642D01*
X6447328Y1695555D01*
X6465493Y1692824D01*
X6470085Y1689234D01*
X6477747Y1681572D01*
X6548669Y1630889D01*
X6550570Y1630321D01*
X6550571Y1630320D01*
X6658564Y1598024D01*
X6658565Y1598024D01*
X6660464Y1597456D01*
X6777060Y1602037D01*
X6778913Y1602754D01*
X6778914Y1602754D01*
X6884038Y1643424D01*
X6885886Y1644139D01*
X6975207Y1719221D01*
X6996571Y1754706D01*
X7034368Y1817488D01*
X7035392Y1819189D01*
X7048426Y1879730D01*
X7059534Y1931322D01*
X7059534Y1931325D01*
X7059951Y1933261D01*
X7046236Y2049138D01*
X6995726Y2154326D01*
X6992408Y2158274D01*
X6640028Y2510654D01*
X6632999Y2527625D01*
X6632999Y2649898D01*
X6627169Y2679213D01*
X6604957Y2712457D01*
X6571713Y2734669D01*
X6569398Y2735129D01*
X6569397Y2735130D01*
X6543560Y2740269D01*
X6543561Y2740269D01*
X6542399Y2740500D01*
X6319883Y2740500D01*
X6313007Y2741506D01*
X6311437Y2741976D01*
X6311434Y2741976D01*
X6309536Y2742544D01*
X6259803Y2740590D01*
X6257996Y2740519D01*
X6257054Y2740500D01*
X6048959Y2740500D01*
X6046888Y2740590D01*
X6006598Y2744080D01*
X6006596Y2744080D01*
X6004620Y2744251D01*
X6002697Y2743773D01*
X6002694Y2743773D01*
X5992370Y2741208D01*
X5986584Y2740500D01*
X5371197Y2740500D01*
X5354226Y2747529D01*
X4876643Y3225112D01*
X4869614Y3242083D01*
X4876643Y3259054D01*
X4893614Y3266083D01*
X5408000Y3266083D01*
X5424971Y3259054D01*
X5432000Y3242083D01*
X5432001Y3080501D01*
X5432001Y2930102D01*
X5437831Y2900787D01*
X5460043Y2867543D01*
X5493287Y2845331D01*
X5495602Y2844871D01*
X5495603Y2844870D01*
X5517309Y2840553D01*
X5522601Y2839500D01*
X5523785Y2839500D01*
X6034662Y2839501D01*
X6542398Y2839501D01*
X6543549Y2839730D01*
X6543550Y2839730D01*
X6548975Y2840809D01*
X6571713Y2845331D01*
X6604957Y2867543D01*
X6627169Y2900787D01*
X6627631Y2903107D01*
X6632769Y2928940D01*
X6633000Y2930101D01*
X6632999Y3449898D01*
X6627169Y3479213D01*
X6604957Y3512457D01*
X6571713Y3534669D01*
X6569398Y3535129D01*
X6569397Y3535130D01*
X6543560Y3540269D01*
X6543561Y3540269D01*
X6542399Y3540500D01*
X6473487Y3540500D01*
X5904782Y3540499D01*
X5887811Y3547528D01*
X5883821Y3551518D01*
X5880772Y3552335D01*
X5880770Y3552336D01*
X5867061Y3556009D01*
X5861273Y3558406D01*
X5846244Y3567083D01*
X5765693Y3567084D01*
X5765591Y3567084D01*
X5765590Y3567083D01*
X5132391Y3567083D01*
X5115420Y3574112D01*
X5108391Y3591083D01*
X5111606Y3603083D01*
X5153832Y3676221D01*
X5154881Y3678038D01*
X5155245Y3680102D01*
X5155246Y3680105D01*
X5174449Y3789013D01*
X5174814Y3791083D01*
X5171243Y3811334D01*
X5175218Y3829265D01*
X5190710Y3839135D01*
X5194878Y3839500D01*
X5408001Y3839500D01*
X5424972Y3832471D01*
X5432001Y3815500D01*
X5432001Y3730102D01*
X5437831Y3700787D01*
X5460043Y3667543D01*
X5493287Y3645331D01*
X5495602Y3644871D01*
X5495603Y3644870D01*
X5507740Y3642456D01*
X5522601Y3639500D01*
X5523785Y3639500D01*
X6034662Y3639501D01*
X6542398Y3639501D01*
X6543549Y3639730D01*
X6543550Y3639730D01*
X6548975Y3640809D01*
X6571713Y3645331D01*
X6604957Y3667543D01*
X6627169Y3700787D01*
X6627631Y3703107D01*
X6632769Y3728940D01*
X6633000Y3730101D01*
X6632999Y4249898D01*
X6632102Y4254411D01*
X6627630Y4276893D01*
X6627169Y4279213D01*
X6604957Y4312457D01*
X6571713Y4334669D01*
X6569398Y4335129D01*
X6569397Y4335130D01*
X6543560Y4340269D01*
X6543561Y4340269D01*
X6542399Y4340500D01*
X6541215Y4340500D01*
X6030338Y4340499D01*
X5522602Y4340499D01*
X5521451Y4340270D01*
X5521450Y4340270D01*
X5521445Y4340269D01*
X5493287Y4334669D01*
X5460043Y4312457D01*
X5437831Y4279213D01*
X5437371Y4276898D01*
X5437370Y4276897D01*
X5434523Y4262582D01*
X5432000Y4249899D01*
X5432000Y4164500D01*
X5424971Y4147529D01*
X5408000Y4140500D01*
X5002883Y4140500D01*
X4987854Y4131823D01*
X4982066Y4129426D01*
X4968357Y4125753D01*
X4968355Y4125752D01*
X4965306Y4124935D01*
X4953018Y4112647D01*
X4936047Y4105618D01*
X4927839Y4107065D01*
X4903662Y4115865D01*
X4903657Y4115866D01*
X4901687Y4116583D01*
X4786899Y4116583D01*
X4679033Y4077323D01*
X4591099Y4003538D01*
X4590051Y4001723D01*
X4590046Y4001717D01*
X4584725Y3992500D01*
X4570152Y3981318D01*
X4563941Y3980500D01*
X4549979Y3980500D01*
X4533008Y3987529D01*
X4530024Y3991167D01*
X4512986Y4016667D01*
X4509402Y4034683D01*
X4512985Y4043333D01*
X4533357Y4073824D01*
X4534669Y4075787D01*
X4535131Y4078107D01*
X4540269Y4103940D01*
X4540500Y4105101D01*
X4540499Y4345068D01*
X4547528Y4362038D01*
X4564499Y4369068D01*
X4579926Y4363453D01*
X4601837Y4345068D01*
X4639117Y4313786D01*
X4746984Y4274526D01*
X4861772Y4274526D01*
X4969639Y4313786D01*
X5057572Y4387571D01*
X5114966Y4486981D01*
X5115330Y4489045D01*
X5115331Y4489048D01*
X5134534Y4597956D01*
X5134899Y4600026D01*
X5132171Y4615499D01*
X5115331Y4711004D01*
X5115330Y4711007D01*
X5114966Y4713071D01*
X5057572Y4812481D01*
X4969639Y4886266D01*
X4861772Y4925526D01*
X4746984Y4925526D01*
X4639118Y4886266D01*
X4551184Y4812481D01*
X4551097Y4812584D01*
X4535957Y4804705D01*
X4518438Y4810230D01*
X4513912Y4815280D01*
X4513773Y4815488D01*
X4513772Y4815489D01*
X4512457Y4817457D01*
X4479213Y4839669D01*
X4476898Y4840129D01*
X4476897Y4840130D01*
X4451060Y4845269D01*
X4451061Y4845269D01*
X4449899Y4845500D01*
X4448715Y4845500D01*
X4108559Y4845499D01*
X3770102Y4845499D01*
X3768951Y4845270D01*
X3768950Y4845270D01*
X3768945Y4845269D01*
X3740787Y4839669D01*
X3707543Y4817457D01*
X3685331Y4784213D01*
X3679500Y4754899D01*
X3679500Y4753715D01*
X3679501Y4599792D01*
X3672472Y4582822D01*
X3655501Y4575792D01*
X3647293Y4577239D01*
X3619475Y4587363D01*
X3619476Y4587363D01*
X3617500Y4588082D01*
X3502712Y4588082D01*
X3394846Y4548822D01*
X3306912Y4475037D01*
X3249518Y4375627D01*
X3249154Y4373563D01*
X3249153Y4373560D01*
X3232109Y4276897D01*
X3229585Y4262582D01*
X2249271Y4262582D01*
X2236792Y4333357D01*
X2231509Y4363319D01*
X2231508Y4363322D01*
X2231144Y4365386D01*
X2173750Y4464796D01*
X2085817Y4538581D01*
X1977950Y4577841D01*
X1863162Y4577841D01*
X1861187Y4577122D01*
X1859121Y4576758D01*
X1858930Y4577839D01*
X1844347Y4578482D01*
X1831944Y4592031D01*
X1830500Y4600229D01*
X1830499Y4690031D01*
X1837528Y4707001D01*
X1854499Y4714031D01*
X1958912Y4714031D01*
X2066779Y4753291D01*
X2154712Y4827076D01*
X2212106Y4926486D01*
X2212470Y4928550D01*
X2212471Y4928553D01*
X2231674Y5037461D01*
X2232039Y5039531D01*
X2225725Y5075342D01*
X2212471Y5150509D01*
X2212470Y5150512D01*
X2212106Y5152576D01*
X2193841Y5184213D01*
X2155761Y5250169D01*
X2154712Y5251986D01*
X2066779Y5325771D01*
X1958912Y5365031D01*
X1854500Y5365031D01*
X1837529Y5372060D01*
X1830500Y5389031D01*
X1830499Y5511928D01*
X1837528Y5528898D01*
X1854499Y5535928D01*
X1862707Y5534481D01*
X1878047Y5528898D01*
X1917606Y5514500D01*
X2032394Y5514500D01*
X2140261Y5553760D01*
X2141618Y5554899D01*
X3679500Y5554899D01*
X3679501Y5305102D01*
X3685331Y5275787D01*
X3707543Y5242543D01*
X3740787Y5220331D01*
X3743102Y5219871D01*
X3743103Y5219870D01*
X3755235Y5217457D01*
X3770101Y5214500D01*
X3771285Y5214500D01*
X4111441Y5214501D01*
X4449898Y5214501D01*
X4451049Y5214730D01*
X4451050Y5214730D01*
X4456475Y5215809D01*
X4479213Y5220331D01*
X4481178Y5221644D01*
X4481183Y5221646D01*
X4496236Y5231704D01*
X4514252Y5235288D01*
X4530353Y5223750D01*
X4551184Y5187669D01*
X4639117Y5113884D01*
X4746984Y5074624D01*
X4861772Y5074624D01*
X4863742Y5075341D01*
X4863747Y5075342D01*
X4887924Y5084142D01*
X4906275Y5083340D01*
X4913103Y5078560D01*
X5336598Y4655065D01*
X5339647Y4654248D01*
X5339649Y4654247D01*
X5353358Y4650574D01*
X5359146Y4648177D01*
X5374175Y4639500D01*
X5380899Y4639500D01*
X5408002Y4639499D01*
X5424972Y4632469D01*
X5432001Y4615499D01*
X5432001Y4530102D01*
X5437831Y4500787D01*
X5460043Y4467543D01*
X5493287Y4445331D01*
X5495602Y4444871D01*
X5495603Y4444870D01*
X5517309Y4440553D01*
X5522601Y4439500D01*
X5523785Y4439500D01*
X6034662Y4439501D01*
X6542398Y4439501D01*
X6543549Y4439730D01*
X6543550Y4439730D01*
X6548975Y4440809D01*
X6571713Y4445331D01*
X6604957Y4467543D01*
X6627169Y4500787D01*
X6627631Y4503107D01*
X6632769Y4528940D01*
X6633000Y4530101D01*
X6632999Y5049898D01*
X6627169Y5079213D01*
X6604957Y5112457D01*
X6600029Y5115750D01*
X6596938Y5117815D01*
X6571713Y5134669D01*
X6569398Y5135129D01*
X6569397Y5135130D01*
X6543560Y5140269D01*
X6543561Y5140269D01*
X6542399Y5140500D01*
X6541215Y5140500D01*
X6030338Y5140499D01*
X5522602Y5140499D01*
X5521451Y5140270D01*
X5521450Y5140270D01*
X5521445Y5140269D01*
X5493287Y5134669D01*
X5468062Y5117815D01*
X5464972Y5115750D01*
X5460043Y5112457D01*
X5437831Y5079213D01*
X5437371Y5076898D01*
X5437370Y5076897D01*
X5437061Y5075343D01*
X5432000Y5049899D01*
X5432000Y5043283D01*
X5424971Y5026312D01*
X5408000Y5019283D01*
X5391029Y5026312D01*
X5126093Y5291248D01*
X5119064Y5308219D01*
X5119429Y5312386D01*
X5134534Y5398053D01*
X5134534Y5398054D01*
X5134899Y5400124D01*
X5134079Y5404777D01*
X5115331Y5511102D01*
X5115330Y5511105D01*
X5114966Y5513169D01*
X5057572Y5612579D01*
X4969639Y5686364D01*
X4861772Y5725624D01*
X4746984Y5725624D01*
X4639118Y5686364D01*
X4551184Y5612579D01*
X4551110Y5612667D01*
X4535926Y5604760D01*
X4518407Y5610281D01*
X4513876Y5615334D01*
X4513773Y5615488D01*
X4513772Y5615489D01*
X4512457Y5617457D01*
X4479213Y5639669D01*
X4476898Y5640129D01*
X4476897Y5640130D01*
X4451060Y5645269D01*
X4451061Y5645269D01*
X4449899Y5645500D01*
X4448715Y5645500D01*
X4108559Y5645499D01*
X3770102Y5645499D01*
X3768951Y5645270D01*
X3768950Y5645270D01*
X3768945Y5645269D01*
X3740787Y5639669D01*
X3707543Y5617457D01*
X3706228Y5615489D01*
X3706010Y5615162D01*
X3685331Y5584213D01*
X3679500Y5554899D01*
X2141618Y5554899D01*
X2228194Y5627545D01*
X2285588Y5726955D01*
X2285952Y5729019D01*
X2285953Y5729022D01*
X2305156Y5837930D01*
X2305521Y5840000D01*
X2295024Y5899531D01*
X2285953Y5950978D01*
X2285952Y5950981D01*
X2285588Y5953045D01*
X2228194Y6052455D01*
X2140261Y6126240D01*
X2032394Y6165500D01*
X1917606Y6165500D01*
X1915630Y6164781D01*
X1915631Y6164781D01*
X1862708Y6145519D01*
X1844357Y6146321D01*
X1831947Y6159864D01*
X1830500Y6168072D01*
X1830499Y6353724D01*
X1830499Y6354898D01*
X1824669Y6384213D01*
X1802457Y6417457D01*
X1800489Y6418772D01*
X1798819Y6420442D01*
X1799759Y6421382D01*
X1792118Y6432835D01*
X1795714Y6450848D01*
X1799122Y6454255D01*
X1798819Y6454558D01*
X1800489Y6456228D01*
X1802457Y6457543D01*
X1824669Y6490787D01*
X1825131Y6493107D01*
X1830269Y6518940D01*
X1830500Y6520101D01*
X1830499Y6889898D01*
X1830499Y6889899D01*
X3679500Y6889899D01*
X3679501Y6520102D01*
X3685331Y6490787D01*
X3707543Y6457543D01*
X3740787Y6435331D01*
X3743102Y6434871D01*
X3743103Y6434870D01*
X3764809Y6430553D01*
X3770101Y6429500D01*
X3771285Y6429500D01*
X4111441Y6429501D01*
X4449898Y6429501D01*
X4451049Y6429730D01*
X4451050Y6429730D01*
X4456475Y6430809D01*
X4479213Y6435331D01*
X4507536Y6454255D01*
X4510489Y6456228D01*
X4512457Y6457543D01*
X4534669Y6490787D01*
X4535131Y6493107D01*
X4540269Y6518940D01*
X4540500Y6520101D01*
X4540499Y6889898D01*
X4534669Y6919213D01*
X4512457Y6952457D01*
X4479213Y6974669D01*
X4476898Y6975129D01*
X4476897Y6975130D01*
X4451060Y6980269D01*
X4451061Y6980269D01*
X4449899Y6980500D01*
X4448715Y6980500D01*
X4108559Y6980499D01*
X3770102Y6980499D01*
X3768951Y6980270D01*
X3768950Y6980270D01*
X3768945Y6980269D01*
X3740787Y6974669D01*
X3707543Y6952457D01*
X3685331Y6919213D01*
X3684871Y6916898D01*
X3684870Y6916897D01*
X3680553Y6895191D01*
X3679500Y6889899D01*
X1830499Y6889899D01*
X1824669Y6919213D01*
X1802457Y6952457D01*
X1769213Y6974669D01*
X1766898Y6975129D01*
X1766897Y6975130D01*
X1741060Y6980269D01*
X1741061Y6980269D01*
X1739899Y6980500D01*
X1738715Y6980500D01*
X1398559Y6980499D01*
X1060102Y6980499D01*
X1058951Y6980270D01*
X1058950Y6980270D01*
X1058945Y6980269D01*
X1030787Y6974669D01*
X997543Y6952457D01*
X975331Y6919213D01*
X974871Y6916898D01*
X974870Y6916897D01*
X970553Y6895191D01*
X969500Y6889899D01*
X969500Y6888715D01*
X969501Y6529934D01*
X962472Y6512963D01*
X945501Y6505934D01*
X933501Y6509149D01*
X932161Y6509923D01*
X930555Y6511271D01*
X928583Y6511989D01*
X928581Y6511990D01*
X824663Y6549812D01*
X824664Y6549812D01*
X822688Y6550531D01*
X707900Y6550531D01*
X600034Y6511271D01*
X512100Y6437486D01*
X454706Y6338076D01*
X454342Y6336012D01*
X454341Y6336009D01*
X435175Y6227310D01*
X434773Y6225031D01*
X435138Y6222961D01*
X454341Y6114053D01*
X454342Y6114050D01*
X454706Y6111986D01*
X512100Y6012576D01*
X600033Y5938791D01*
X707900Y5899531D01*
X822688Y5899531D01*
X930555Y5938791D01*
X932164Y5940141D01*
X933499Y5940912D01*
X951711Y5943310D01*
X966284Y5932129D01*
X969500Y5920128D01*
X969501Y5705102D01*
X975331Y5675787D01*
X976645Y5673821D01*
X997015Y5643333D01*
X1000598Y5625317D01*
X997015Y5616668D01*
X994976Y5613616D01*
X979704Y5603409D01*
X961688Y5606992D01*
X956927Y5612084D01*
X956512Y5611735D01*
X955161Y5613345D01*
X954112Y5615162D01*
X866179Y5688947D01*
X758312Y5728207D01*
X643524Y5728207D01*
X535658Y5688947D01*
X447724Y5615162D01*
X390330Y5515752D01*
X389966Y5513688D01*
X389965Y5513685D01*
X389510Y5511102D01*
X370397Y5402707D01*
X370762Y5400637D01*
X389965Y5291729D01*
X389966Y5291726D01*
X390330Y5289662D01*
X391379Y5287845D01*
X412082Y5251986D01*
X447724Y5190252D01*
X535657Y5116467D01*
X643524Y5077207D01*
X758312Y5077207D01*
X866179Y5116467D01*
X930073Y5170081D01*
X947592Y5175605D01*
X963885Y5167123D01*
X969500Y5151696D01*
X969501Y4905102D01*
X975331Y4875787D01*
X991330Y4851842D01*
X997015Y4843333D01*
X1000598Y4825317D01*
X997015Y4816667D01*
X975331Y4784213D01*
X969500Y4754899D01*
X968948Y4755009D01*
X961116Y4740366D01*
X945896Y4734923D01*
X935087Y4734923D01*
X918116Y4741952D01*
X914302Y4746923D01*
X886510Y4795061D01*
X885461Y4796878D01*
X797528Y4870663D01*
X689661Y4909923D01*
X574873Y4909923D01*
X467007Y4870663D01*
X379073Y4796878D01*
X378024Y4795061D01*
X343304Y4734923D01*
X321679Y4697468D01*
X321315Y4695404D01*
X321314Y4695401D01*
X302391Y4588082D01*
X301746Y4584423D01*
X100500Y4584423D01*
X100500Y8705500D01*
X107529Y8722471D01*
X124500Y8729500D01*
X9285500Y8729500D01*
X9302471Y8722471D01*
G37*
%TD.AperFunction*%
%TD*%
M02*
